# xmcd
#
# Track frame offsets:
#	183
#	14158
#	30923
#	46868
#	75763
#	95485
#	116505
#	130090
#	147805
#	177703
#	192625
#	209553
#	229798
#	248898
#	269323
#	288283
#
# Disc length: 4104
#
# Revision: 3
# Processed by: cddbd v1.5.1PL0 Copyright (c) Steve Scherf et al.
# Submitted via: audiograbber 1.83.01
# Normalized: r2:DSETVAR1
#
DISCID=e0100610
DTITLE=Various Artist - Hit Parade des années 80 (86)
DYEAR=1990
DGENRE=Pop
TTITLE0=Sandra Kim - J'aime la vie
TTITLE1=Caroline Loeb - C'est la ouate
TTITLE2=Muriel Dacq - Tropique
TTITLE3=Elli Medeiros - Toi mon toit
TTITLE4=Desireless - Voyage, voyage
TTITLE5=Viktor Lazlo - Canoë rose
TTITLE6=Emmanuelle - Premier baiser
TTITLE7=Jean-Luc Lahaye - Papa chanteur
TTITLE8=Gold - Capitaine abandonné
TTITLE9=Niagara - L'amour à la plage
TTITLE10=Bill Baxter - Embrasse-moi idiot
TTITLE11=Jane Birkin - Quoi
TTITLE12=Renaud - Miss Maggie
TTITLE13=Julie Pietri - Eve lève-toi
TTITLE14=JJ Goldman - La vie par procuration
TTITLE15=Etienne Daho - Duel au soleil
EXTD=
EXTT0=
EXTT1=
EXTT2=
EXTT3=
EXTT4=
EXTT5=
EXTT6=
EXTT7=
EXTT8=
EXTT9=
EXTT10=
EXTT11=
EXTT12=
EXTT13=
EXTT14=
EXTT15=
PLAYORDER=
